/* XPM */
static char *result[] = {
/* columns rows colors chars-per-pixel */
"64 64 19 1 ",
"  c #6F7469",
". c #71766A",
"X c #757A6C",
"o c #797D6E",
"O c #7B7F70",
"+ c #7E816D",
"@ c #7E8172",
"# c #82846E",
"$ c #848670",
"% c #878872",
"& c #8A8B74",
"* c #93957E",
"= c #98987F",
"- c #969780",
"; c #979881",
": c #9C9D84",
"> c #9FA086",
", c #A1A187",
"< c #A2A288",
/* pixels */
"#%:,<<>::<><::%:$=$$..#X....X:<,%$:,<<<,,::;$#$:::=%:<<<<<<<>>:X",
"$#%,<<:.X:<:&*o-##$:X.$=.$$$%,,,:&,,:,,,:O .+$$:%$$$::<<>,:,<:@:",
":##>:<:XO<<<-....#&=##%,O::,,,,,<,:=o:,,<:oXo:&=$#$$#%==&=#-;O-;",
":%&:&<<:;<<:$X  .#=$#%=<,,#=,,,,<,$. .;,:,,,>,:$$%=$#=o#=%=X..XX",
",>><><<-o;<:&:. ..$#%=%,<,;&;$:,,:#   .=&,<<,,%$=:$##X .#..  .;,",
"<<>:><:. X::::#o###$:$#,<:X+#.%,,#X    O:,<,,::%:%###. .$.   X,<",
":>-O><;.  .@>:&=$##$=#$,<:...$:::$.   o:,,:,,%$$=X++#. .:%X  :,:",
"$;.X;>%. XO:<<:%##$%%#%::-X#&,:%,:$  .:,,-o;,:#+#...o. .-:;O.:;X",
";-.X@::.X-:<,,,:%%:,:%&:@ X:,:%%,,:o.o,,:OXO:,X..   .  .XXX-X-OX",
"OXO;:::. .X:,,<<,,<::,::- X;:,&:,,,:&;,,,,,,<:X    X .XO:,&XXX-;",
"::-@:@-X.  O,<::,,;.o=X+X  oo;,::,,,:X;<,,,,,:oX..O-X.-:,:::,:XO",
"X-o-:-X::XO:<:$%,:ooo...++o-O@;O&,,<,.X;:&::::,:O::%..%,:X$,,;X-",
" ...X.X:::,,::%&,:,;oXO XX*X.;,,:,,<:X X:,$$$&,:;<:-..*::X$::O.o",
".  .+X ..&,:$%:::&,,::O%;oO;Xo,,<<,,;  .;:$$$:,%O:OX..O:&$=$@O+-",
";X .X-. o:,:$#&,,,:,<<,,,;:,,,,<,:,:OX .@$%-$$::,,<:@:,,:%$#XXX.",
"::@;O:.o:<,:%$:<,-o,<<,,;o:<<<<<,&:,,-O#X%:$#$,,:,::,<:,&=%$-$-X",
"@,:,,;O::<-o*&><:oX;<<;$..X:,,,::$$,,&:,:>:$@$:,%$#O:,&,:$=%$$$X",
"::@,,,,:O*X X:<<::.X:-X+.  O:,:%=$$::,,,<<:$%,<,:..::%:,%#%=%$$:",
"<,,,,,,;..   X:<<:X.....  X:,,%#$$##%:,,<:O:,::,,..:%$:<:o*o=:%:",
"<<,,<:&;.    X:<<<-.    .X;,,:%#####$$;&:X.::XO,,O#-&:&:,o  .$$:",
":,,:<:$$+.. .+%:<-X . ..O-OX-&-#.+..+#$%:.X;X.-:,:%&:<,,:$X  *&:",
"#%-O:,:$#.+..##&:O    X;:,-. X##..  X$$:-X-X   X:,,<<,<:%$:o.o:,",
"#+o-O,:$######%,::XX .+%%-X  +##. . #-%:OX.  X.X::::,<:%:>,,,:,,",
"%#OXO,:$##$:%%:,><,;X O-#X   .+####.@%:,,:X X::,;O@%:,&#:,<,:,,,",
":##$:<,:%##%::,,<<<<-O-X  .. X$%=$###&,<,,:X::O-o+.#:<:&:><:%%:,",
":$#&,<,<:&:&:&:&:<::%-.  .$:X$;&=$%=%=,,,,;X:,.X .#$:<,,:o:,%$:,",
"::&:<<,,:,,,:%:,<<:%%%X  .:,;&:,>&,,&,,=O-OX::X-$$$%,:,:X.-:@:<<",
"o::,::,:&,,,:%,,:<:%:,;  .,<<,<,<,,,,>,o X-:,:%:%::,:&:,o.X;:::,",
".Xo-oo:<,,:::%,:O::&,,,X X,,,::O,<,,<<:.  O::&$%:,::o.;<;...ooX;",
";o-@-&,<,,#o#X:;.X:,<,,;O:,<:O;O:>,,,<,X X:,<,,,<:o   X-o.+X;;XX",
":-O;,,,<,:%@  XX..:,,,,,,,,,;X;:,=%&,,>=o;,,:<<<:O   X ..+$#-o.;",
"XO-$,,,<<,,;X.  ....X::&:,,:X XX:&$:,,<,&:,:o:,<,:o.X;o  #$.. .-",
" $,:,,<,:,,,:;X     .O::<<<:o...::::<<,,,,:o.X:,>,,::<:oX::X. .O",
"X&:,,,:-O,,,,:# . ..X:<<:<<<::@X=oo:<:&:&>=...$%:<<,<,<:;,<,:O-,",
":,:@-XX X:,&:&=#o.$::<<:&:::>;O-..*O:<:,%=o.+##=<>,,,,:XX::<,,,:",
",:,;o   .O:,:%:#.X:<<<<:%%%#XXO;....:<<:$X#####$=&:&:,+X..X-,:,X",
":@,,*  X::,:&#$+X#&=O::&:::..X;:. ..:<<:$$=$####%:>,>>=::X ..#% ",
",:<;oX-X;O:,;####::X X,:%%:O-;O:Xo-O:,,%%:%##+.#%:&,<>%%::o  #@X",
":<:@- XX;O:%$####%:. .:<:&::$:o:::,,:&::::$+...#=,=<<>%$:<-X+#X*",
"&,:::O-O,;,:#####%;. .X:<:>>:,=&<<,:,%:,%$#...+#&,&>,,,:&:o+.#.X",
";&#&,::,:@,:$$$$%,:... X:<,,>:&:<<:@:%:,,:$###X;:<:<<<<<$:%. ..*",
"$#&:<:O:<::&:,,::,;X-X o><<:XX;&:<,:&:,,:%$$::$:&:&::<<:X.*...XX",
"&:,<,:#&,<<::,:Xo=oX,-O:,,>:X.::&:<,>,<>&:::&$$$X;:<<<:X ..X*X*:",
":<<<,,##:<<:$,;. o::,,,:,:%%::%%#%:<<<>>,,:@*&:;X.X:<:O..@o=O O:",
"<:<<,:%#&:<<:;X.OX,<:,:@:&:;o#$=$$:,>,;O::<:@:,o.  X:::X.:::..-<",
":O::,,:#$,<<,o..+o::@,,:,,:X.#$:$$&:&:X.X%:::>:X  ..O:<::<>O .;<",
"-..+,,:#$:<<,:-.%:,,:,,<<<:X.+..X=:,>:..X::O$::X..X-::<<,<:$.X:<",
"X  X:,:#.O::,,:&:,,,,:%,<,,=.   .o:,:o .*o:;o$::X;;Oo:,>&:&#@;<,",
"  .$:%%#.+$%%:&:,,,:%%$%:<<:X  ..#:&:X. o.+::%:,O:<;o:<,:<:%%:,o",
" .+%=$=#..#=$%=%&::&:,-.o:,,:#.##@&:,,;o;:::%$:,:,&::,<,,<<:,,:X",
".##$$$#.  .X##$$::&:,:+ .:,&:%###$;,,,,:<<,:X.:,<:,<<<,:O:,<,:%.",
"$:%;###+.   .#$$$&:,,,-..&:,:#####&,,<,,<:o#+X=,<<<<<:&;X$:<&%$#",
"#$$$##... .##$=###&&,<: X:<<:#$=$$::<,:#::X.+.#$%:<<:O..#$:,,::%",
"$$$$#+.  .X=##$##:::,;X X:<,%##$##$&:&,:<:$+..+.$:<:Oo..+#%,,,,,",
":=$=#X+...#$####&,<<:o  .:<:%#$+.#$:,:,<:&##.  .$:<>:X.+.#=,,<<<",
",%$$####*X=$#.#%:,,<,;X o:,&=%=X X;,,<<<<:$. ...X:><,:$###%:,,,,",
",:=$##$$#.%=X+$=&<<,:,;O:,<=%##.  $&,,<,,:%@X#+.+$&><,:%=$#X=:&,",
",>%$#$:%#....#$&::,:Xo::,,,:$#X  o;:,<:O:<::::#.#::<,>&:&##.X%=,",
",,:::$::=. .-:::&%&X o:<,:&&:#+..=,,::oX:>@O:OX::&:<<,><:$.  =,,",
",,,>:%<;X   O:+:::;+X;<,,,,::$#+#%,:oX ;>,:::::<,,,,,>&:o.. .XX:",
":o;@;&:O  . o;O:+,<:$,<,:+::&=%###:O   :&><>,,,,,<<,&>::X...o. X",
":...o:::-..o:::;o:<:&:,<:.X:X%:=$%:;X  X=,>@:,%%:,,,::<<::;X.X=:",
":.  X<<<:O;:<:&:o::%#$&::. X.X%%#%,<;X Xo>,::&$#%:&:&%:<<<:O.;,,",
":.  X><<::<<<:$:%:%####&:#  .;::%#:,,::::,,,,:%=$%=&::<<<<<::,,,"
};
