/* XPM */
static char *result[] = {
/* columns rows colors chars-per-pixel */
"64 64 256 2 ",
"   c #2A220E",
".  c #2B230F",
"X  c #2C230F",
"o  c #2C240F",
"O  c #2D240F",
"+  c #2E240F",
"@  c #2E250F",
"#  c #2E2510",
"$  c #2F2510",
"%  c #312911",
"&  c #312A11",
"*  c #312A12",
"=  c #322A12",
"-  c #332A12",
";  c #332B12",
":  c #332A13",
">  c #322B13",
",  c #332B13",
"<  c #342A12",
"1  c #342B12",
"2  c #342A13",
"3  c #342B13",
"4  c #352B13",
"5  c #362B13",
"6  c #342C13",
"7  c #352C13",
"8  c #362C13",
"9  c #362C14",
"0  c #372D14",
"q  c #3C2D15",
"w  c #3D2D15",
"e  c #3E2D15",
"r  c #3C2E15",
"t  c #3D2E15",
"y  c #3E2E15",
"u  c #3C2D16",
"i  c #3D2D16",
"p  c #3E2D16",
"a  c #3C2E16",
"s  c #3D2E16",
"d  c #3E2E16",
"f  c #3F2E16",
"g  c #3E2F16",
"h  c #3F2F16",
"j  c #3E2E17",
"k  c #3F2E17",
"l  c #3E2F17",
"z  c #3F2F17",
"x  c #3F3017",
"c  c #402F16",
"v  c #402F17",
"b  c #412F17",
"n  c #403017",
"m  c #413017",
"M  c #413117",
"N  c #403119",
"B  c #413119",
"V  c #423119",
"C  c #413219",
"Z  c #423219",
"A  c #433219",
"S  c #42321A",
"D  c #43321A",
"F  c #42331A",
"G  c #43331A",
"H  c #43321B",
"J  c #42331B",
"K  c #43331B",
"L  c #443218",
"P  c #463318",
"I  c #463319",
"U  c #44331A",
"Y  c #44331B",
"T  c #453419",
"R  c #463419",
"E  c #473419",
"W  c #473519",
"Q  c #45341B",
"!  c #47351A",
"~  c #483419",
"^  c #483519",
"/  c #493519",
"(  c #493619",
")  c #48351A",
"_  c #49351A",
"`  c #4A351A",
"'  c #48361A",
"]  c #49361A",
"[  c #49361B",
"{  c #4A361A",
"}  c #4B361A",
"|  c #4A371A",
" . c #4B371A",
".. c #4A361B",
"X. c #4B361B",
"o. c #4A371B",
"O. c #4B371B",
"+. c #4C361A",
"@. c #4C371A",
"#. c #4C371B",
"$. c #4D371B",
"%. c #4C381B",
"&. c #4D381B",
"*. c #4E381B",
"=. c #4E391B",
"-. c #4F391B",
";. c #4E381C",
":. c #4E391C",
">. c #4F391C",
",. c #4F3C1D",
"<. c #50391C",
"1. c #50391D",
"2. c #513A1C",
"3. c #513A1D",
"4. c #503C1D",
"5. c #503D1D",
"6. c #513D1D",
"7. c #523D1D",
"8. c #513E1D",
"9. c #503D1E",
"0. c #513D1E",
"q. c #513D1F",
"w. c #523D1E",
"e. c #533D1E",
"r. c #513E1E",
"t. c #523E1E",
"y. c #533E1E",
"u. c #533F1E",
"i. c #533E1F",
"p. c #533F1F",
"a. c #543E1E",
"s. c #543F1E",
"d. c #543E1F",
"f. c #553E1F",
"g. c #543F1F",
"h. c #553F1F",
"j. c #563F1F",
"k. c #4F3B21",
"l. c #4E3A22",
"z. c #4F3A22",
"x. c #4F3B22",
"c. c #503B21",
"v. c #503B22",
"b. c #593F20",
"n. c #55401F",
"m. c #56401F",
"M. c #57401F",
"N. c #564020",
"B. c #574020",
"V. c #584020",
"C. c #594120",
"Z. c #5A4021",
"A. c #5B4021",
"S. c #5B4121",
"D. c #5B4123",
"F. c #5C4021",
"G. c #5C4121",
"H. c #5D4121",
"J. c #5C4221",
"K. c #5D4221",
"L. c #5C4122",
"P. c #5D4122",
"I. c #5E4122",
"U. c #5E4123",
"Y. c #5D4222",
"T. c #5E4222",
"R. c #5F4222",
"E. c #5E4322",
"W. c #5F4322",
"Q. c #5E4223",
"!. c #5F4223",
"~. c #5E4323",
"^. c #5F4323",
"/. c #604222",
"(. c #604322",
"). c #604223",
"_. c #604323",
"`. c #614323",
"'. c #614423",
"]. c #654424",
"[. c #654425",
"{. c #654525",
"}. c #664424",
"|. c #664425",
" X c #674425",
".X c #664525",
"XX c #674525",
"oX c #684525",
"OX c #694525",
"+X c #684625",
"@X c #694625",
"#X c #684526",
"$X c #694526",
"%X c #684626",
"&X c #694626",
"*X c #6A4626",
"=X c #6B4626",
"-X c #6A4726",
";X c #6B4726",
":X c #6B4627",
">X c #6B4727",
",X c #6C4727",
"<X c #6D4727",
"1X c #6E4827",
"2X c #6E4A27",
"3X c #6F4B27",
"4X c #6F4A28",
"5X c #704B28",
"6X c #714B28",
"7X c #714B29",
"8X c #714C28",
"9X c #724C28",
"0X c #724C29",
"qX c #734C29",
"wX c #734D29",
"eX c #734D2A",
"rX c #744D29",
"tX c #754D29",
"yX c #744D2A",
"uX c #754D2A",
"iX c #764D2A",
"pX c #754E2A",
"aX c #764E2A",
"sX c #774E2A",
"dX c #764F2A",
"fX c #764E2B",
"gX c #774E2B",
"hX c #774F2B",
"jX c #784F2B",
"kX c #79502B",
"lX c #7A502C",
"zX c #7A502D",
"xX c #7B502D",
"cX c #7B512D",
"vX c #7C502D",
"bX c #7C512D",
"nX c #7D512D",
"mX c #7D512E",
"MX c #7D522E",
"NX c #7E522E",
"BX c #7F522E",
"VX c #7F532F",
"CX c #815430",
"ZX c #825430",
"AX c #835430",
"SX c #825431",
"DX c #835431",
"FX c #835531",
"GX c #855531",
"HX c #855632",
"JX c #865733",
"KX c #8A5B34",
"LX c #8B5B35",
"PX c #8B5C34",
"IX c #8B5C35",
"UX c #8C5C35",
/* pixels */
"z z s + s z z z d 3 = > w f d d 3 d p d #.&X=X*X*XOX_.*X>X*X*X*XOX_.*X>X*X*XOX_.&X`.*X:X*X^.i.{ z w : = , s 3 - - 3 d z z d , - ",
"O.O.O.{ } { | { { ^ d : , q 3 w s e 3 d { XXOXW.T.R.oX*X0X_.T.R.^.oX*XqX_.T.T.T.*XwXrX*XoXW.w./ d d ; t Z { { { { { O. .O.O.{ X.",
"*X*X*XOXW.^.T.g.t.O.^ - * - - - 3 d d w 4 { w.t.t.t.y.w.d.S.y.G.P.T.T.R.H.t.6.t.H.Q.T.G.i.A.{ s 7 E 3 d ..G.T.T.T._.*X*X>X*X*X&X",
"pXyXuXrXyXxXvXeX@Xw.Z , = = w u s d s , = 3 d z S h d d l D z v U {  . .] Z h z U G Y G z z d 4 W { h d  .T.*X>XpXZXDXmXZXbXxXuX",
"R.h.T.W.T._.OX,XqXi.z w w 3 w # - 3 a 3 w s d d s , 3 a 4 a 3 i l z f d 3 - - 3 E v ^ ^ g : g ^ ] ] ^ z  .@XgXDXaX,X>X*X'.(._._.",
"H.t.t.i.x.l.=.OXqXy.) d i w d B B d d d z f z S G G S S G D l z Z B f s s s s d v ^ n n ^ 8 ^ ^ 4 3 d d O.pXFXfX*XT.T.h.H.Y.T.Y.",
"H.t.y.S.z.z.P._.#X#.S , : d z / ] { } &.t.i.y.i.P.P.g.g.T.I.g.t.w.#.{ v h c m { } O.6.t.y.6.{ v s = , s $.CXsX`.T.h.K.A.p.t.p.p.",
"i.t.q.c.l.v..X(. X} B = 4 ^ Z l n y.&XxXdXpXqX&XOX*XqXwXpXyXqX&X&XoXT.G.F.P.|.T.H.T.T.W.oXY.#._ B 3 : d #.yX*XP.T.G.Y.>.r.t.t.t.",
"t.t.k.q.x.l.v.Y.K.O.d 4 R ) S v w.&XgXJXPXaX`.T.T.T.W._.&X_._.!.oX*XOX^.H.W.*XOX/.OX&X&X*XT.w.{ v R f d @.9X_.*.A.>.T.4Xh.6.t.t.",
"p.t.q.k.D.v.O.w.p.,.x R 8 7 S w.&XgXHXUXjX-XT.g.y.p.H.T.T.T.XXh.g.R.OXoXh.T.&XR.^.&X^.^.oX^.y.{ d 4 E h O.&X@Xw.g.].a.g.S.%.t.t.",
"G.p.t.k.x.A.} O.5.G s h ^ ^ G Y.aXGXGXMX;X&X&X%XXXg.Y.^.T.Y.T.T.Y.Y._.*X%X*XoXa.oX*XT.T._.XXy.{ B 7 ^ z O.$XoX&.t.y.O.{ %.6.t.0.",
"p.S.y.0.O.} { _ G s , - g ^ U T.bXGXgX-XR.oX^.T.T.T.^.oXT.g.g.S.h.H.oXoX_.oXT.>.oXOX^.T.oX^.t.{ v W ^ f } |.R.y.S.#.| 6.6.O.4.Q ",
"t.y.6.O.4.{ _ G B l = % : d Z t.-XaX-XT.g.Y.~.T.h.oXoX^.T.XXT.>.P.H.g.g.G.g.T.5XR._.XXh.XXT.w.{ ^ h 4 d { &.P.i.t.6.O.6.t.O.O.4.",
"6.{ | 4.U / D S v ^ 4 - 3 d z  .H.oXR.Y.p.p.T.XXT.R.T.T.R.^.&X0X*XT.g.G.g.r.p.T.h.XX_.Y.g.p.t.{ v R d g ( y.XXy.O.0.O.O.6.t.6.O.",
"h d z ' z h d / { { _ _ ] / v { } O.e.H.G.u.t.g.K.G.g.T.XXT.^.*X@X^.T.T.S.y.t.g.T.^.oXOXT.H.t.5.g 8 ^ z ( w.G.w. .6.{ { O.0.O./ ",
"- , s g ^ ^ 8 ] / f d z _ { { ^ d z _ O.O.6.t.t.t.%.r.p.g.Y.T.T.^.oX&XY.<.G.g.Y.XXR.^.&XR.H.t.0.c ^ ^ h { #.#.O.{ O.{ { _ G Z g ",
"w 3 w 3 d / ] / d - 3 s d h ^ 4 3 ^ z d d z / { 5.0.y.G.T.T.T.T.T.R.oX_.6X&XH.g.g.H.T.oXT.p.p.5.h ^ 4 d { S.G.w.{ ` _ S S z i 3 ",
"d d s 3 3 h { ] 3 , w i , 3 ^ d 4 _ d 3 a 3 3 f n ] 5.t.H.T.T.T.K.g.Y.T._.R.R.H.p.y.g.Y.H.y.Z.] 8 W < w { t.p.t.{ S Z l d w 4 w ",
"w z G ] { { { ] S C v f f z ] { ] _ g 3 d i d E ^ v h z o.0.t.t.y.t.t.p.H.T.T.T.Y.Y.G.p.y.{ h 4 W ^ - y [ 6.t.6.G j d w 3 7 R d ",
", Z 0.P.R.T.g.s.y.g.P.g.P.I.d.&.+...Z d w 4 E 8 4 ^ / d d B z z ] { 6.r.t.t.t.y.y.y.t.t.b.v = 3 ] ] 4 d C S G S d t 3 7 W R 4 - ",
"3 ) i.*XiXbXpXzXcXcXxXrXrXuXpXqX*XP.O.g 3 3 W W 4 W { d : 3 d d z d h h h h n ] { ] { n v t 3 g / { ] W 4 3 a 3 = 3 W ^ d 4 w d ",
"d ] d.tXnXgXtX>X;X>X=X`.@X,XuXjXSX,XH.{ d q 8 ^ d 4 ^ 4 3 W W d w , = = 3 ^ E d w 4 W / t 4 ^ / d d _ z i w - q = - _ v : = w d ",
"z ` g.xXgX>X&X_.&X`.oXH.j.XX*XtXhXcX;Xw.Z 4 E v s 3 ^ ] ] ] 8 7 c h 7 7 v ] 8 ; O = 8 E < r ^ z - # E j 4 q + q , 3 ^ E - & , s ",
"d ( y.pXtX*X_.oX*X XR.h.{.g.h.&X-XhXxXs.S 4 _ / z B Y w.t.t.t.Y.oX&X#XoXoXT.t.4.S S E f X < z Z S S Y S h d w f B d f 3 - ; 3 d ",
"3 ] g.rX,XOXT._.Y.1.|.T.g.p.G.T._.yXxXy.D ^ { { / o.w.Y._.>XuXaXaXaXaXaXaXtX*XT.i.{ b I 4 N { w.h.T.P.g.w.#.} O...{ ] V d ^ ^ d ",
"6 5.R.pX*X^.R.XX_.6X_.H.y.G.h.H.T.`.wX&.G ] v ] O.t.T.;XbXDXMXpXpXuX*X*X-XrXtX;X+Xy.^ 0 R n w.-XZXmXpXwX&XXX#X.Xa.t.t.{ S v ^ 8 ",
"d t.W.wX*XT.G.T.R.&XW.g.t.p.S.g.H.R.9X@.D ^ v { w.T.;XcXuX,X*XB.W.XXj.XX_._.;XwXrXd.{ E h S T.bXBXaX>X*X^.R.W.^.R.T.G.} _ ^ c P ",
"z 6.K._.^.P.>.Y.W.T.oXT.t.6.y.t.p.W.XXO.B 4 B { i.-XuXrX`.$X&X].h.d.t.T.oX&XXXC.9Xs.] g 4 G T.FXaX>X$X^.T.XXT.^.oX^.i.] z h s $ ",
"z | g.oXT._.6X=XXXh.^.XXg.y.g.S.d.].$._ g : g ..T.tXrX_.T.oXR.2..XoXg.p.T.Y.g.XX*Xt.G z ^ ] h.CX,X*X*X^.R.T.T.XXR.H.t.{ z z / ~ ",
"f 4.y.oX_.XX`.%X_.T.Y.h.H.XXXXh.y.{ z / d 3 d O.^.uX>XT.T.T.%X4XV.XXY.t.w.y.g._.%Xi.] _ ^ n y.yX`.OX*X&XoXR.Y.h.t.p.t.{ Z _ ^ z ",
"3 { y.^.oX^.Y.T.oXOXT.G.p.g.T.%X5XL f / z w d O.T.rX*XR.|.>.y.m..Xh.t.t.*.H.oX&X*XG.m d 4 g y.qX_.T.R.R.^.T.T..Xg.t.w...G W 4 - ",
"- ^ y.oX^.T.P.>.Y.^.T.p.y.y.t.g._.2X*.` Z f z O.T.=X@XT.M.2Xh.H.Y.t.t.T.6X_.R._.oXI.{ d w f w.oXOX^.T.R.oX^.R.^.T.H.t...) 8 w s ",
", S #. XT.T.R.|.T.Y.H.y..XT.g.G.y.j.].} z w d O.T.qX_.T.XX`.T.H.g.t.g.T.=X*X*XOX^.H.{ 7 d z { >.H.+X^.~.*X&XoX^.^.T.i.{ { E z f ",
"d S 6.g.H.T.T.T.p.p.y.&.a.H.Y.H.p.t.a.{ d , d O.^.yX_.T._.XXH.h.XXW.[.f.XX=X*X*XE.y.{ ^ ! S #.2X2. XOX^.oX_.R.OXOXT.w.{ z v ^ { ",
"z K 8.t.y.g.J.g.t.G.W.6XT.g.y.g.G.g.S.} B 3 d ..T.rX*X).oX^.g.T.OXH.#.{ $. X`.oXT.w.{ f 4 ) #.*X6XV.XXR.^.XXh.oXXXh.t./ h W v ^ ",
"d K t.p.H.G.y.S.t.h.+X*X_.XXT.T.^.K.e.{ S ) S ..i.*X=X*X*XH.h.XXT.O.| 6.%.R.oXh.t.w.{ d g { t.OX-XoX_.T.^.oXg.w.:.G.t.{ z z d 8 ",
"3 S G.R.T.y.&.y.p.T.oX_.oX^.T.XXoXT.#.] z ) D ] y.qX;XrX*Xj.{.(.Y.$.w.t.s.0X=XH.g.t.] 8 W { p.XXh.T.oXR.oX_.A.&.G.T.#.] z ^ { W ",
"d v Y.OXR.T..XR.H.T.T.R.oX^.H.<.Y.T.y.{ z d S o.g.yX,XrX*XG.h.T.oX&XoXT.W.pX*X_.XXy.} E 8 Z t.Y.g.T.&X_.*X9X3.T.&XXXt.] l z ^ 4 ",
"^ c Y.*X^.T.^.XXT.T.Y.T.^.XX/.|.T.T.G.0.C 2 F 5.s.qX=X@XT.<.G.T.`.rX>X`.-XrX`.XX^.t./ h E n w.T.Y.R.OXoX_.*X0XqXoXg.6.{ z f d : ",
"d v Y.OXT.^.Y.g.g.Y.h.T.T.^.T.^.T.p.p.r.S 4 ^ O.y.&X^.R.W.6X_.T.oX;XrXpXrX-XT.^.H.t.v - g / y..Xj.H.T.^.T.!.T.d.#.0.O.] h W z w ",
"3 D Y.W.^.oX^.g.G.T.XXoXY.Y._.^.Y.p.t.r.G E v { H.&XR.XX(.*XoX^.R.!.;X;X*XT.g.G.p.6./ 4 d z O.T.G.g.p.H.T.Y.p.t.O.6.{ ] z v ^ f ",
"s D G._.oX_.XXY.g.Y.g.G.<.R.0X&XR.G.t.6.S d d O.T.oXR.T.R.T.^.oXoX_.7X_.T.H.t.y.t.t.{ ^ W f { S.h.{.g.y.g.G.p.G.w.O.{ { ] { ^ z ",
"d 7 w.oXOXT.T.p.t.A.O.*.3X&X_.^.Y.y...A d 4 t { G.h.K.T.T.T.T.^.T.Y.h.G.p.y.p.G.y.6.] 4 7 h _ #.S.g.t.G.G.y.t.G.t.r.6.] D ) 8 ^ ",
"^ 8 ^ w.y.t.t.6.] m / 4.g.P.L.G.w.] z d f T 8 _ O.6.t.y.i.t.y.G.y.t.t.i.6.t.S.t.0.O.] h ^ ) G _ } ] ] O.} O. .O. .{ ] Z d s h ^ ",
"z E 1 d h z z d v d d D S D n v z v h d w 7 R { v U ..] ] { { { | O.] ] {  .X.G _ ] { _ ^ 8 W v d , , s v ^ { { ] v z s - 4 R 4 ",
"= s @ t 3 w s $ R R $ R 8 u h R f E ^ 3 , q 7 W _ ] ) 4 4 d d 8 ) ) 4 3 h _ _ g 4 n ] v d 3 ^ ) ^ 3 - 7 E 5 d d / _ ^ 3 3 R 4 q ",
"O d ^ / s 7 ^ E 8 3 - ) E 8 E 8 s 8 / d - w w 8 f U X.{ _ Y Y ] #.#.{ { U Y Y } | 6.w.O.{ G h 8 _ ^ ) ^ / d d 4 d v E 7 W / 3 - ",
"4.} } O.{ ] O.O.] ) U Y Q _ #.{ _ S _ _ 3 , d ^ O.y.XX&X_.oX$X_.$X&X*X*XoX XR.oXoXW.T.T.T.G.0.D ) 5 s 9 S .. .{ { { Y G X.O.] U ",
"_.W.^.T.a.&.y.y.a.h.oX*X$X_.OXXXd.o.A ) B s z e.XX*X1XbXbXaXvXyXxXpXpX0X_.OX&X*X*X&X*X*X@XT.G.} ^ 4 s ' w.P.T.^._._.!.!.^.R._.oX",
"yXyXwXqX%X XoX&X8X*XrXxXbXxXuX>XXXw.z , 3 z w.&X<XNXKXNXuX-X*X^.R.W.T.g.g.Y.h.R.T.^.OX*XoXh.t.{ v ^ v } T.-XaXMXDXAXcXlXcXcXlXyX",
"_.R.n.s.a.h.R.XXM.T.g.m.R.>XuXrX_.6.d 3 t } &XbXVXLXhX-XR.h.Y.p.y.y.t.p.G.p.g.}.h.Y.^.Y.h..Xp.5.c / _  .oXgXIXHXgX-X`.(._.W.N.s.",
"R.T.G.a.G.G.p.p.P.oXg.S.h.T.-XpXOXO.h R m G.rXkXKXhX_.T.H.y.H.T.H.t.t.G.Y.h..Xh.H.Y.H.p.p.T.y.5.h f ] #.*XmXHXgX&Xh.H.T.T.T.G.t.",
"oXT.h.G.h.y.t.t.j.XXY.h..XT._.uXOX} s 8 S T.aXnXaX*XT.Y.y.6.g.oX^.g.t.;.P.T.T.y.S.g.y.p.T.K.w.] d 3 ^ $.qXhXaX;XK.g.T.R.XXR.T.t.",
"R.R.XXR.XXT.y.Y..Xh.h.].h.G.R.rXW. .z R U oXaXuX`.Y.g.G.O.O.7.R.oX.Xh.].R.G.g.t.-.|.T.!.XXy.] v s 4 _ $.qXsXtXOXh.H.XXR.T.T.H.p.",
"T.T._.T.^.Y.p.t.h.G.H.g.y.y.h.0XT.0.Z 4 G &XaX-XT.p.t.H.$.] O.w.p.g.S.h.G.>.G.R.XX_.^.XXw.v z ^ h ^ _ #.*XtX-X`..Xh.T.T.T.Y.g.G.",
"p.T.oXR.T.^.H.y.S.g.Y.T.XXT.Y.&Xg.o.V a U qXcX_.Y.t.t.T.[.$.] o.6.t.y.8.y.|.R.oX;XoXY.w.M { #.} z _ v } OX*X_.XXT.H.T.T.T.T.g.y.",
"t.K.T.K.R.oXT.t.p.Y._.oX_.Y.h.oXP.X.f 3 Y 0X,XT.Y.p.t.t.h.].*.#.t.g.u.t.&.P.g.^.OXT.&.%.i.XX8XA.v E h O.&X*XT.g.g.T.^.T.R.oX.Xy.",
"t.w.#.y.Y.^.T.g.g.+XwX_.T.T.T.&XH.} E d Y &X*X^.T.T.p.r.p.T.XX|.T.XXT.T.|.g.t.G.T.^.&XqXwX`.W.#.g 8 s } oX&Xg.g..XR.XXR.T.T.g.y.",
"t.O.O.y.T.Y.T.XXT._.qX_.T.^.OXoXy.h 4 d Y oXOXT.R.oXT.g.G.g.y.g.g.T.T.T.T.t.t.y.h.0XtX,X=X*XoX#.^ E v { T.oXg.T.^.R.^.T.T.H.y.XX",
"t.6.t.G.H.p.h.XXT.K._.oX/.oX&Xh.5.g s ^ Y Y.^.T.T.T.T.Y.T.G.y.H.G.p.y.p.G.p.a..XR.*X*X*X*X>X&Xw.z 4 ^ U w.T.T.XXT.K.E.T.T.g.p.T.",
"y.t.%.t.p.u.S.g.t.y.T.&XY.h.XXG.{ d 8 _ Y G.T.^.Y.g.t.p.y.y.p.Y.g.t.S.p.g.S.y.T.^.OX`.OX*X*X&X#.s 4 _ D o.0.t.i.0.t.G.a.G.Y.G.p.",
"r.t.0.0.r.6.O.4.{ { y.}.y.6.y.9.z d ^ _ H z.T.oXR.Y.p.r.p.G.Y.Y.G.p.p.G.G.p.p.Y.^.*XoX_.T._.|.#.h ^ / h ^ G D G S G ..{ O.{ #.5.",
"g h n n z d d h h h z z h g z z h d d z H l.Y.W.R.oXT.g.G.g.y.y.g.S.y.y.y.t.G.R.oX&X_.XX_.XXh.5.v _ d 3 s d ) z s d d f ^ b ^ n ",
"  o ~ / i . . - s s - . * o u d ^ k 3 s J x.U.T.T.^.^.T.R.H.y.H.H.p.t.t.G.p.p.T.^.&XT.^.oX^.t.0.x ) 3 * = 3 ( ^ 3 = = : z ^ v / "
};
